<svg xmlns="http://www.w3.org/2000/svg" viewBox="0 0 420 120">
  <rect x="4" y="4" width="112" height="112" rx="28" fill="#a66a2b"/>
  <path d="M22 67c0-25 17-42 38-42s38 17 38 42c0 18-11 29-38 29S22 85 22 67Z" fill="#e8b75c"/>
  <path d="M42 35c-6 8-8 15-8 23M61 29c-5 9-6 18-5 28M79 35c-4 8-5 15-3 22" fill="none" stroke="#fff7e6" stroke-width="5" stroke-linecap="round"/>
  <path d="M30 76c15 7 45 7 60 0" fill="none" stroke="#7a481e" stroke-width="4" stroke-linecap="round" opacity=".55"/>
  <text x="136" y="57" font-family="Nunito,Arial,sans-serif" font-size="31" font-weight="900" fill="#51321d">VSGI</text>
  <text x="136" y="91" font-family="Nunito,Arial,sans-serif" font-size="33" font-weight="900" fill="#a66a2b">Caixa Fácil</text>
</svg>
